# xmcd
#
# Track frame offsets:
#	150
#	9961
#	19542
#	29694
#	38131
#	51105
#	66176
#	77291
#	89090
#	103625
#
# Disc length: 1588 seconds
#
# Revision: 1
# Processed by: cddbd v1.5.2PL0 Copyright (c) Steve Scherf et al.
# Submitted via: audiograbber 1.83.01
#
DISCID=7106320a
DTITLE=Anne Murray - Both Sides Now
DYEAR=2006
DGENRE=Country
TTITLE0=It's all over
TTITLE1=Some birds
TTITLE2=For baby
TTITLE3=Paths of victory
TTITLE4=Buffalo in the park
TTITLE5=Both sides now
TTITLE6=The last thing on my mind
TTITLE7=All the time
TTITLE8=David's song
TTITLE9=There goes my everything
EXTD=
EXTT0=
EXTT1=
EXTT2=
EXTT3=
EXTT4=
EXTT5=
EXTT6=
EXTT7=
EXTT8=
EXTT9=
PLAYORDER=
